HIERARCHY
ROOT Hips
{
	OFFSET 0.000000 88.474243 0.000000
	CHANNELS 6 Xposition Yposition Zposition Zrotation Yrotation Xrotation 
	JOINT Hips_Spine
	{
		OFFSET 0.000000 0.000000 0.000000
		CHANNELS 3 Zrotation Yrotation Xrotation
		JOINT Spine
		{
			OFFSET 0.005100 8.711998 -0.691000
			CHANNELS 3 Zrotation Yrotation Xrotation
			JOINT Spine1
			{
				OFFSET -0.009200 8.660301 -1.275000
				CHANNELS 3 Zrotation Yrotation Xrotation
				JOINT Spine2
				{
					OFFSET 0.006300 9.852501 -1.857000
					CHANNELS 3 Zrotation Yrotation Xrotation
					JOINT Spine2_Neck
					{
						OFFSET 0.000000 0.000000 0.000000
						CHANNELS 3 Zrotation Yrotation Xrotation
						JOINT Neck
						{
							OFFSET 0.016300 11.420799 -0.263300
							CHANNELS 3 Zrotation Yrotation Xrotation
							End Site #name: Head
							{
								OFFSET -0.019200 9.262405 2.362500
							}
						}
					}
					JOINT Spine2_LeftShoulder
					{
						OFFSET 0.000000 0.000000 0.000000
						CHANNELS 3 Zrotation Yrotation Xrotation
						JOINT LeftShoulder
						{
							OFFSET 5.616900 6.732201 -0.345700
							CHANNELS 3 Zrotation Yrotation Xrotation
							JOINT LeftArm
							{
								OFFSET 10.664888 -0.183372 -2.440700
								CHANNELS 3 Zrotation Yrotation Xrotation
								JOINT LeftForeArm
								{
									OFFSET 27.459126 0.000000 0.000000
									CHANNELS 3 Zrotation Yrotation Xrotation
									End Site #name: LeftHand
									{
										OFFSET 21.306858 0.000000 0.000000
									}
								}
							}
						}
					}
					JOINT Spine2_RightShoulder
					{
						OFFSET 0.000000 0.000000 0.000000
						CHANNELS 3 Zrotation Yrotation Xrotation
						JOINT RightShoulder
						{
							OFFSET -5.580300 6.737503 -0.344400
							CHANNELS 3 Zrotation Yrotation Xrotation
							JOINT RightArm
							{
								OFFSET -10.679335 -0.188484 -2.383900
								CHANNELS 3 Zrotation Yrotation Xrotation
								JOINT RightForeArm
								{
									OFFSET -27.503529 0.000000 0.000000
									CHANNELS 3 Zrotation Yrotation Xrotation
									End Site #name: RightHand
									{
										OFFSET -21.306808 0.000000 0.000000
									}
								}
							}
						}
					}
				}
			}
		}
	}
	JOINT Hips_LeftUpLeg
	{
		OFFSET 0.000000 0.000000 0.000000
		CHANNELS 3 Zrotation Yrotation Xrotation
		JOINT LeftUpLeg
		{
			OFFSET 6.857700 -6.739601 0.312100
			CHANNELS 3 Zrotation Yrotation Xrotation
			JOINT LeftLeg
			{
				OFFSET -0.367590 -34.731552 -4.572400
				CHANNELS 3 Zrotation Yrotation Xrotation
				End Site #name: LeftFoot
				{
					OFFSET 0.367590 -34.656704 -6.067400
				}
			}
		}
	}
	JOINT Hips_RightUpLeg
	{
		OFFSET 0.000000 0.000000 0.000000
		CHANNELS 3 Zrotation Yrotation Xrotation
		JOINT RightUpLeg
		{
			OFFSET -6.876100 -6.733299 0.301000
			CHANNELS 3 Zrotation Yrotation Xrotation
			JOINT RightLeg
			{
				OFFSET 0.347353 -34.795158 -4.515900
				CHANNELS 3 Zrotation Yrotation Xrotation
				End Site #name: RightFoot
				{
					OFFSET -0.347353 -34.589367 -6.070300
				}
			}
		}
	}
}
MOTION
Frames: 13
Frame Time: 0.041667
-1.057748 1.864881 0.341267 8.787169 47.757561 -16.907430 0.000000 -0.000000 0.000000 -7.856987 4.827205 -26.326112 5.787647 -8.638899 -5.796557 0.000000 0.000000 0.000000 3.912478 -0.711069 0.794509 -13.933237 -1.870217 -7.186691 14.205014 2.659895 -7.384396 -54.971774 -31.250244 7.373262 -156.765612 46.432631 -115.790608 -179.646573 -31.902201 177.058234 5.583758 3.057813 -4.058051 9.697168 5.431909 6.046311 165.048277 69.578944 38.391938 0.541889 28.925256 4.522159 0.000000 -0.000000 0.000000 40.480555 6.043537 36.581083 59.141261 27.378741 108.497619 -0.000000 -0.000000 0.000000 82.139260 8.178864 -3.763157 -14.764035 7.492439 -81.199110 
-2.625624 4.358298 0.326702 14.473063 42.796685 -16.852729 0.000000 -0.000000 0.000000 -1.305214 8.785049 -51.051944 3.749904 -6.243175 7.149960 0.000000 0.000000 0.000000 -2.069809 1.824689 2.524406 -27.063654 5.402980 -10.143639 16.223874 0.634655 -8.393621 -81.358999 -34.028534 15.944432 -155.631367 44.648395 -119.995282 175.520603 -30.796089 178.652444 6.716801 1.621676 -12.402585 19.747237 17.905387 -0.784171 -67.317903 88.936673 162.934878 -3.681975 73.464061 -1.361834 0.000000 -0.000000 0.000000 37.916057 -9.640832 39.842333 59.777559 22.474059 127.256438 -0.000000 -0.000000 0.000000 72.697091 -0.683798 -25.820373 -18.794235 3.707820 -81.085715 
-4.565198 6.772929 0.424927 14.426909 48.940598 -17.290232 0.000000 -0.000000 0.000000 2.776696 10.962995 -56.597869 2.861824 -5.068363 11.774095 0.000000 0.000000 0.000000 -3.727301 3.907510 11.484765 -33.503170 12.268275 -5.907804 15.724785 0.130265 -9.719308 -92.370732 -30.997658 16.107753 -150.291182 45.447601 -116.476035 175.808186 -25.378679 179.167107 6.970585 1.885292 -10.846383 32.468595 4.564454 -9.581201 24.490705 70.906693 -117.079703 -173.496055 55.821874 -174.845410 0.000000 -0.000000 0.000000 31.488350 -13.898840 38.793568 73.430458 25.898669 125.393772 -0.000000 -0.000000 0.000000 67.724478 5.877304 -33.345449 -20.639900 7.253206 -76.001924 
-6.726555 9.391229 0.646964 14.034004 55.812265 -17.177770 0.000000 -0.000000 0.000000 4.626890 13.502398 -57.698736 1.672665 -5.432194 11.162323 0.000000 0.000000 0.000000 -4.845464 4.097498 12.942042 -39.474431 15.540135 -2.111916 14.110177 -1.777561 -9.681018 -97.845533 -28.438192 15.195383 -148.674091 48.409578 -117.750253 176.542519 -23.712959 178.850474 6.067469 0.621630 -11.418787 35.565470 1.299385 -11.807216 35.577091 58.697709 -119.733461 -174.884405 35.222458 -176.344531 -0.000000 -0.000000 0.000000 28.994612 -17.738231 39.676819 75.549856 28.689697 122.808173 -0.000000 -0.000000 0.000000 67.288998 6.196123 -35.926164 -20.701569 7.006407 -73.236316 
-9.042933 12.134513 1.057927 13.013511 63.006762 -17.517993 0.000000 -0.000000 0.000000 6.457820 15.152170 -55.647691 0.743259 -6.205873 9.598802 0.000000 0.000000 0.000000 -5.349060 3.081283 11.903527 -46.168789 15.942919 -2.654438 12.804498 -3.101675 -9.191710 -99.318996 -26.317363 14.735838 -149.167297 50.264837 -120.035838 176.971544 -25.321422 178.607191 4.032041 -1.193892 -11.195942 38.153846 -0.868547 -13.924696 38.596881 54.373586 -125.989343 -176.687689 21.600386 -177.366234 -0.000000 -0.000000 0.000000 29.733427 -18.993381 38.799835 75.361542 29.396619 122.046044 -0.000000 -0.000000 0.000000 67.577809 5.663002 -37.515439 -21.468168 8.131188 -70.957422 
-11.465258 14.989690 1.593690 12.090152 68.229484 -17.904703 0.000000 -0.000000 0.000000 7.432548 15.124452 -52.842083 0.006844 -7.445676 7.901899 0.000000 0.000000 0.000000 -5.774318 2.152395 10.786046 -51.850934 17.132506 -3.364215 11.495025 -3.830427 -8.657350 -99.551483 -25.395418 14.081224 -151.557069 51.214165 -122.470598 177.002823 -27.178461 178.499278 2.567842 -2.675473 -10.608349 42.028059 -2.579910 -15.565985 40.324446 51.018173 -130.079499 -177.768800 20.823898 -177.301951 -0.000000 -0.000000 0.000000 31.626498 -20.218157 35.582625 74.826417 30.032991 121.040363 -0.000000 -0.000000 0.000000 68.458199 5.017964 -37.348365 -22.326513 9.063862 -68.841621 
-13.940033 17.953119 2.221225 11.042477 72.096756 -18.547680 0.000000 -0.000000 0.000000 7.922439 14.711371 -50.335401 -0.470285 -9.027448 6.289435 0.000000 0.000000 0.000000 -5.897638 1.117320 9.911158 -54.960463 19.363902 -3.076999 9.627848 -4.316857 -8.012093 -99.265891 -24.698663 13.052979 -154.848006 51.538087 -124.605033 176.908309 -27.879807 178.462851 1.117386 -3.898587 -9.649079 46.090871 -4.709413 -17.269511 42.266817 47.763128 -131.817369 -178.115066 23.029027 -177.335978 -0.000000 -0.000000 0.000000 34.649411 -21.202697 32.333310 73.172195 30.587473 119.582288 -0.000000 -0.000000 0.000000 69.153709 4.606847 -36.861596 -22.916698 10.069471 -68.068985 
-16.422668 20.898451 2.924411 10.191569 75.287049 -19.057638 0.000000 -0.000000 0.000000 8.064871 14.223486 -48.239777 -0.683795 -11.098102 4.296204 0.000000 0.000000 0.000000 -6.006876 0.102610 8.993182 -57.025919 20.897736 -2.774712 8.035826 -4.655121 -7.454282 -99.033669 -24.300675 12.268358 -157.489664 51.843194 -126.203827 176.830421 -28.612666 178.403683 -0.178719 -4.712865 -8.747400 49.605488 -5.621518 -18.253620 43.288964 45.988236 -132.689572 -178.442140 25.386998 -177.274695 -0.000000 -0.000000 0.000000 37.303525 -21.888245 29.568063 70.496117 30.803790 117.681230 -0.000000 -0.000000 0.000000 70.711270 5.028052 -35.266412 -23.239469 11.107393 -66.881270 
-18.863979 23.782679 3.643877 9.299884 78.387383 -19.434969 0.000000 -0.000000 0.000000 8.243673 14.033244 -46.167037 -0.781454 -13.051208 2.726343 0.000000 0.000000 0.000000 -6.169385 -0.705661 8.127196 -59.321705 21.577881 -3.228907 6.495388 -4.782939 -7.139062 -98.718221 -23.579646 11.131589 -158.844108 52.033863 -127.045459 176.791014 -29.792403 178.320683 -1.378215 -5.592526 -7.894639 51.421013 -4.682072 -17.655849 43.891790 45.425047 -132.916945 -178.837466 26.924143 -177.203929 -0.000000 -0.000000 0.000000 39.444771 -22.026007 26.829120 67.157262 30.448751 115.684430 -0.000000 -0.000000 0.000000 72.072059 6.351767 -34.189145 -23.270177 12.063263 -64.640984 
-21.257711 26.577755 4.378149 8.417295 81.210008 -19.709185 0.000000 -0.000000 0.000000 8.334015 13.860148 -44.368844 -0.816729 -14.539197 1.477338 0.000000 0.000000 0.000000 -6.392795 -1.505588 7.396691 -61.891628 21.234573 -4.845298 5.082747 -4.806286 -6.753625 -98.336702 -22.819190 9.960860 -159.827397 52.063739 -127.738561 176.796978 -30.821657 178.203153 -2.501140 -6.324589 -7.203049 52.311331 -3.675324 -16.958602 44.089807 45.535233 -133.043465 -179.114279 27.526975 -177.199846 -0.000000 -0.000000 0.000000 41.178097 -21.599282 24.152754 63.505745 29.310590 113.942531 -0.000000 -0.000000 0.000000 72.857058 8.487832 -33.875031 -23.126714 13.163018 -62.041697 
-23.586472 29.300720 5.125637 7.266380 83.633596 -20.283660 0.000000 -0.000000 0.000000 8.428997 13.579010 -42.563960 -0.878853 -15.703201 0.365570 0.000000 0.000000 0.000000 -6.602857 -2.252059 6.642587 -64.128721 20.298579 -6.845947 3.760136 -4.831955 -6.280659 -97.970834 -22.013976 8.821826 -160.727109 51.909826 -128.426280 176.850012 -30.882596 178.055784 -3.560143 -6.769018 -6.631102 52.507373 -2.526533 -16.124893 44.026117 46.161513 -133.099109 -179.297579 28.205160 -177.313659 -0.000000 -0.000000 0.000000 42.712242 -20.971930 21.468506 60.391692 27.899357 112.776951 -0.000000 -0.000000 0.000000 73.568468 10.845672 -33.440807 -22.916411 14.413026 -59.388571 
-25.830568 31.961388 5.874773 6.057061 85.466293 -21.062527 0.000000 -0.000000 0.000000 8.774787 13.455783 -40.777652 -0.916865 -16.930404 -0.726502 0.000000 0.000000 0.000000 -6.863434 -2.989061 5.978311 -65.943443 19.203436 -8.647674 2.464608 -4.910166 -5.719405 -97.728572 -21.181272 7.775066 -161.596730 51.623367 -129.088248 176.903583 -30.948458 177.898019 -4.627296 -7.291581 -5.933583 53.059234 -1.657255 -15.434345 43.678914 46.932494 -133.306171 -179.227012 27.992417 -177.606627 -0.000000 -0.000000 0.000000 44.082133 -20.645851 19.028336 57.521266 26.478021 111.990893 -0.000000 -0.000000 0.000000 74.351960 13.058452 -32.654345 -22.644976 15.733650 -56.873174 
-27.952082 34.583820 6.620435 5.573200 86.489812 -21.311736 0.000000 -0.000000 0.000000 8.873614 13.135162 -39.049483 -0.878123 -18.157471 -1.983224 0.000000 0.000000 0.000000 -7.103716 -3.921055 5.162014 -67.348206 18.063829 -10.151886 1.109799 -5.032973 -5.083222 -97.547741 -20.368894 6.785573 -162.431668 51.314880 -129.760290 176.951029 -31.006425 177.735579 -5.735307 -7.919053 -4.995853 54.206177 -1.133688 -14.990033 43.066954 47.710892 -133.683903 -179.020923 27.286980 -178.018405 -0.000000 -0.000000 0.000000 45.318900 -20.675891 17.296382 55.125141 25.380616 111.339796 -0.000000 -0.000000 0.000000 75.351569 15.198451 -31.556221 -22.399060 17.101440 -54.526514 
